<svg id="Layer_1" data-name="Layer 1" xmlns="http://www.w3.org/2000/svg" viewBox="0 0 391.86 213.87"><path d="M182.5,276.64a12.14,12.14,0,0,1-7,9.68c-.21.2-.21.2-.21.41-.62,5.14-3.7,8.85-8.44,10.08-.41.21-.82.21-1.23.41a17.92,17.92,0,0,1-9.68,3.09,17.28,17.28,0,0,1-15-9.26,18.11,18.11,0,0,1-2.26-7.41c-6-11.94-15-24.29-28-38.9-1.23-1.24-2.26-2.47-3.29-3.71q.61,5.57,1.24,10.5c.82,4.53,1.64,9.06,2.47,13.17a15.31,15.31,0,0,0,.82,2.27,23.36,23.36,0,0,1,1.65,4.94l1.23,6.17a10.92,10.92,0,0,1-3.5,11.12c-1,.82-2.26,1.64-3.5,2.47a10.43,10.43,0,0,1-3.7,7.61,24.32,24.32,0,0,1-15.44,5.77,22.56,22.56,0,0,1-6.38-.83h-.41a18,18,0,0,1-16.47-10.91c-2.26-5.35-2.88-10.9-3.29-15.84a28.61,28.61,0,0,0-.41-4.12c-1.65-14.82-3.3-28.41-4.12-42.2-1-13.37-1.85-27.16-2.26-42.39l-.21-2.27c0-2.88-.2-6-.2-9.05v-.21a19.4,19.4,0,0,1,1.64-9.06,13,13,0,0,1,4.53-5.35l.41-.41a21.88,21.88,0,0,1,1.24-2.26,8.82,8.82,0,0,1,1-2.06,12.83,12.83,0,0,1,4.52-5.35l.42-.42a15.45,15.45,0,0,1,13.79-8.23,18.13,18.13,0,0,1,14.61,7.21,14.15,14.15,0,0,1,2.47,11.32c.41.41.82.61,1.23,1a6.49,6.49,0,0,1,1.86,4.73v1.23c0,4.33.2,8.65.2,12.76,2.68-1,4.94-2.26,7.21-3.29,7.41-3.5,16-7.61,24.49-12.14,4.53-2.47,8.64-4.74,12.35-7a5.29,5.29,0,0,0,1.44-.82c3.09-1.86,7.41-4.53,12.14-4.53a15.75,15.75,0,0,1,3.3.41,13.76,13.76,0,0,1,8,6.38,8.79,8.79,0,0,1,5.15,3.91,9.16,9.16,0,0,1,.2,8.65,53.68,53.68,0,0,1-7.82,11.11c-4.94,8.85-11.93,15.44-20,21.2a130.48,130.48,0,0,1,24.08,36.43,140.55,140.55,0,0,1,8.44,24.7A24.59,24.59,0,0,1,182.5,276.64Zm-6.8-7.82a137,137,0,0,0-8.23-23.46A124.65,124.65,0,0,0,138,204c-1.24-1.24-3.29.2-3.09,1.64-1-.82-1.85-1.64-2.88-2.47,1.85-1,3.5-1.85,5.35-2.88,13.17-7.41,26.76-15.64,34-29.23a2.45,2.45,0,0,0-3.7-3.08l-.62.61c0-3.29-1.65-6.38-4.94-7.2-4.12-1.23-8.65,2.47-11.94,4.32a553.51,553.51,0,0,1-53.31,26.55c-.41-7.61-.61-15-.82-22.64v-1.44s-.21-.2-.21,0c-1.44,8.65-2.47,17.29-3.29,26.14a4.36,4.36,0,0,0-1.65,1.24L91.52,177c.21-4.73,0-9.67,1.24-13.79,3.91-11.11-13-17.9-18.53-7.82a11.4,11.4,0,0,0-1,2.27c-4.32,1-4.73,6-4.52,9.67,0,3.7.2,7.41.2,11.11.62,14.21,1.24,28.2,2.27,42.2s2.67,28,4.32,42c.62,6.17.62,12.35,3.09,18.11a11.64,11.64,0,0,0,11.73,6.79,17,17,0,0,0,16.87-3.29,4.9,4.9,0,0,0,1.24-4.94c-.82-4.74-2.68-9.26-3.71-13.18-.82-4.52-1.85-9.05-2.46-13.58-1.45-11.53-2.68-23.05-3.71-34.37,1.44-.62,3.09-1.24,4.94-2.06,1.23-.41,2.26-.82,3.29-1.24,6,4.33,10.91,9.88,15.85,15.44,11.32,12.35,22.23,26.35,29.85,41.78a11.45,11.45,0,0,0,1.44,5.77,10.29,10.29,0,0,0,9.26,5.76,9.61,9.61,0,0,0,9.67-10.91c-1-11.94-21.4-48.16-29.22-57.84a135.61,135.61,0,0,1,27.16,44.46c1.44,4.12,7.83,17.7,1.24,20.38-.41.2-.21,1,.2.82C177.14,279.11,176.53,272.94,175.7,268.82Z" transform="translate(-54.07 -143.06)"/><path d="M213.16,276.44a7.1,7.1,0,0,1-1.85,6.38,7.53,7.53,0,0,1-5.36,2.67v1a7,7,0,0,1-1.85,6.38,8.19,8.19,0,0,1-6.17,2.68h-.21a11.18,11.18,0,0,1-5.14,5.55,18.54,18.54,0,0,1-8.24,1.86,19.93,19.93,0,0,1-14-5.77,13.26,13.26,0,0,1-3.5-2.47c-5.76-5.14-6.59-12.34-7.21-18.11a5.84,5.84,0,0,0-.2-1.85,349.28,349.28,0,0,1-2.88-46.72V224a148.09,148.09,0,0,1,.82-18.94c.62-5.76,2.47-10.29,5.35-13.58a3.76,3.76,0,0,0,.83-1c-2.27-1-7.62-3.7-9.06-8.85-1-4.11.2-8.44,3.5-13.17a44,44,0,0,1,4.32-4.53,24.42,24.42,0,0,1,9.06-11.73,17.52,17.52,0,0,1,2.05-1.65c6-3.91,11.94-6,17.5-6a26.08,26.08,0,0,1,5.76.62c8,2.06,13.59,7,16.06,14,1.64,4.73,0,9.88-4.53,13.17a18.68,18.68,0,0,1-2.06,1.23,11.75,11.75,0,0,1-2.26,6,12.09,12.09,0,0,1,.82,3.71v.41l1.85,1.24a6.43,6.43,0,0,1,1.85,4.93A578.35,578.35,0,0,0,213.16,276.44Zm-39.93-102.3a24.73,24.73,0,0,0,9.47,1.65c3.91,0,8.44-1,10.91-3.91a29.32,29.32,0,0,0,10.9-4.94c1.65-1.24,3.09-3.29,2.27-5.56-2.06-5.35-6.18-8.44-11.73-9.88-6.38-1.65-12.77.82-18.12,4.53a5.6,5.6,0,0,0-1.23,1,20.45,20.45,0,0,0-5.15,5.14c-1.44,2.06-3.29,4.94-2.47,7.62C168.5,171.88,171.38,173.52,173.23,174.14Zm1.65-.82a10.77,10.77,0,0,1-3.92-2.27c-1.64-1.44-1.44-2.88-.61-4.73a26.16,26.16,0,0,1,2.67-3.91c-2.06,4.73.21,9.47,6.18,10.7a21.58,21.58,0,0,0,9.88-.2c.2,0-1.24,1.85-7.21,1.85A26.65,26.65,0,0,1,174.88,173.32Zm31.9,104.15A546.39,546.39,0,0,1,202,189.58c0-.21-1.44,0-1.44.41-.82,14.61-.82,36.22-.2,50.84-.41,0-1-7.21-1.44-7a50.24,50.24,0,0,1-.42-5.14c-.2-7.62-.61-15.24-.61-22.65,0-7.61.41-15,.41-22.64a2.82,2.82,0,0,0-3.29-2.47c-3.3-8.23-13.79-.61-18.12,2.27a8.1,8.1,0,0,0-1.64,2.06c-2.47,2.47-3.71,6.38-4.33,10.29-.82,7.41-.61,15-.61,22.43a341,341,0,0,0,2.67,45.9c.83,5.76,1,11.94,5.35,16.05a12.09,12.09,0,0,0,3.09,1.86c.21.2.21.41.41.62a13.23,13.23,0,0,0,15,2.67,3.48,3.48,0,0,0,2.06-3.91,8.92,8.92,0,0,0,4.32-3.5C203.69,279.73,207,279.52,206.78,277.47Zm-24.91-85.83h.21c-2.26,6.58-2.68,14.2-2.68,21.2-.2,9.26,0,18.52,0,27.78h-.61c-.62-4.94-1.24-9.88-1.65-14.82v-2.47c.41-9.46.21-20.37,3.29-29.64A4.24,4.24,0,0,1,181.87,191.64Z" transform="translate(-54.07 -143.06)"/><path d="M322,211a30.35,30.35,0,0,0-.41,4.12,15.85,15.85,0,0,1-7.41,11.11c-1.44,6.59-7.41,11.94-13.59,11.94h-.82a14,14,0,0,0-2.88-.2c.61,1.23,1.44,2.67,2.05,3.91.42.82.83,1.85,1.24,2.67,5.76,11.74,12.35,24.91,10.5,39.11a11.64,11.64,0,0,1-7.21,9.47v.62a11.89,11.89,0,0,1-12.14,10.49,12.91,12.91,0,0,1-3.91-.61h-1a22.31,22.31,0,0,1-3.71-.42,8.25,8.25,0,0,1-2.26.21,8.15,8.15,0,0,1-3.7-.82l-2.27-1-.82-2.47c-3.29-8.65-7.21-17.7-11.94-28.41-2.26-5.35-6.38-16.05-6.38-16.05-.62-1-1-2.06-1.65-3.09a9.83,9.83,0,0,1,.21,2.47c0,4.53-2.06,14-3.29,20.17a76.48,76.48,0,0,1-.42,7.82l-.82,1.65a29.74,29.74,0,0,1-6.17,8H243v.41l-.82,1.65a29.92,29.92,0,0,1-6.18,8,14.8,14.8,0,0,1-9.05,3.3,12.31,12.31,0,0,1-9.47-4.53,20.33,20.33,0,0,1-1.24-2.06,9.29,9.29,0,0,1-5.14-7.82,42.77,42.77,0,0,1-.82-8.85,36.1,36.1,0,0,0-.42-4.94c-.41-3.91-1-8.24-1.85-13.38-1.65-11.12-1.23-25.73-9.06-34.58-5.35-6.17-13-11.52-10.29-21a13.27,13.27,0,0,1,6.8-8.65c.2-.41.2-.82.41-1.44,0-.41.2-.62.2-1-.82-4.32-1.64-8.23-2.47-12.14l-1-3.91,2.89-2.27c-3.09-5.14-3.71-11.32-1-16.46a14.77,14.77,0,0,1,5.76-6.18,21.78,21.78,0,0,1,1.44-3.91c1.85-4.11,6.59-8.85,17.08-8.85a65.93,65.93,0,0,1,11.94,1.44l.82.21a9.13,9.13,0,0,1,3.92,1.44c1,.41,2.26.82,3.49,1.23.21.21.21.21.42.21,23.46,7.41,44.45,21.82,64.83,35.61a13.56,13.56,0,0,1,4.73,6c2.06,1.64,4.33,3.29,6.8,5.14C320.8,198,323.07,204,322,211Zm-10.29-11.52c-2.68-2.06-5.56-4.32-8.44-6.38a7.83,7.83,0,0,0-2.88-4.53C280.26,175,259.88,161,237.24,153.77c-.21,0-.41-.21-.62-.21-1.44-.62-2.88-1-4.32-1.65a2.61,2.61,0,0,0-1.85-.82c-6.8-1.24-19.15-3.91-23.06,3.7-2.26,4.74,0,10.5,3.91,13.79a17.81,17.81,0,0,1-4.32,4.53c1.65,7,3.09,14.2,4.53,21.2a21.87,21.87,0,0,0-3.7.21c-6.18,0-8.65,10.29-2.89,14a36,36,0,0,0,6.18,3.3c-1.65.2-3.09.41-4.74.61,2.27.83,4.53,1.65,6.8,2.27a1.49,1.49,0,0,1,1.23,1.44h1.24c.41,2.47.82,4.73,1.23,7.2q2.47,14.52,4.94,29,.93,6.79,1.85,13.59c.42,4.53,0,9.47,1,13.79a3.22,3.22,0,0,0,3.71,3.29,8.94,8.94,0,0,0,1.23,3.3,6.53,6.53,0,0,0,9.26.41,17.8,17.8,0,0,0,4.74-6.18,20.79,20.79,0,0,0-.21-3.5c.62-10.08-.41-20.58-1-30.66-.41-9.47-1.23-18.94-2.26-28.2,5.35.2,10.91.62,16.26.82,1,1.85,2.26,3.91,3.5,5.76V225a63.8,63.8,0,0,1,3.29,6.38c3.91,7.62,9.47,21.2,11.73,26.55,4.12,9.47,8.24,19.14,11.94,28.82a2.6,2.6,0,0,0,2.68-.62c0,.21.2.21.41.21a10.37,10.37,0,0,0,5.56.61c3.49,1.44,8.23.41,8.85-4.11,1.64-13.38-5.56-26.35-11.12-38.08a210.07,210.07,0,0,0-14.82-25.52c9.68.82,19.35,1.64,29,2.26,3.3.41,7.21-3.09,7.62-7,.21-1.44.41-2.88.62-4.32C316.27,205.63,315,201.93,311.75,199.46Zm-80.28-24.08c17.71,4.11,34.17,13,50,23.87-6.59-.82-13.38-1.64-20-2.47-4.74-3.91-11.53-9.47-17.71-5.55a5.5,5.5,0,0,0-1.85,3.08c-1-.2-2.26-.2-3.29-.41-.82-4.32-1.85-8.64-2.88-13-.21-1.85-2.27-1.85-3.3-.82-.2-.41-.2-1-.41-1.44C231.89,177.64,231.68,176.41,231.47,175.38Zm17.09,81.5c-1-12.35-2.06-24.7-4.12-36.63H242.8c2.46,16.87,3.08,34,3.91,51C247.53,266.35,249.18,264.29,248.56,256.88Z" transform="translate(-54.07 -143.06)"/><path d="M355.38,276.44a7.08,7.08,0,0,1-1.86,6.38,7.49,7.49,0,0,1-5.35,2.67v1a7.07,7.07,0,0,1-1.85,6.38,8.19,8.19,0,0,1-6.17,2.68h-.21a11.2,11.2,0,0,1-5.15,5.55,18.5,18.5,0,0,1-8.23,1.86,19.93,19.93,0,0,1-14-5.77,13.26,13.26,0,0,1-3.5-2.47c-5.77-5.14-6.59-12.34-7.21-18.11a5.84,5.84,0,0,0-.2-1.85,349.28,349.28,0,0,1-2.88-46.72V224A148.09,148.09,0,0,1,299.6,205c.62-5.76,2.47-10.29,5.35-13.58a3.53,3.53,0,0,0,.82-1c-2.26-1-7.61-3.7-9-8.85-1-4.11.2-8.44,3.5-13.17a44,44,0,0,1,4.32-4.53,28.78,28.78,0,0,1,2.88-5.56,29.33,29.33,0,0,1,6.17-6.17,18.56,18.56,0,0,1,2.06-1.65c6-3.91,11.94-6,17.5-6a26.08,26.08,0,0,1,5.76.62c8,2.06,13.58,7,16.06,14,1.64,4.73,0,9.88-4.53,13.17a18.68,18.68,0,0,1-2.06,1.23,11.67,11.67,0,0,1-2.27,6,11.83,11.83,0,0,1,.83,3.71v.41l1.85,1.24a6.43,6.43,0,0,1,1.85,4.93A578.35,578.35,0,0,0,355.38,276.44Zm-39.93-102.3a24.69,24.69,0,0,0,9.47,1.65c3.91,0,8.43-1,10.9-3.91a29.37,29.37,0,0,0,10.91-4.94c1.65-1.24,3.09-3.29,2.27-5.56-2.06-5.35-6.18-8.44-11.74-9.88-6.38-1.65-12.76.82-18.11,4.53a5.6,5.6,0,0,0-1.23,1,20.45,20.45,0,0,0-5.15,5.14c-1.44,2.06-3.29,4.94-2.47,7.62C310.71,171.88,313.59,173.52,315.45,174.14Zm1.64-.82a10.82,10.82,0,0,1-3.91-2.27c-1.64-1.44-1.44-2.88-.61-4.73a26.16,26.16,0,0,1,2.67-3.91c-2.06,4.73.21,9.47,6.18,10.7a21.58,21.58,0,0,0,9.88-.2c.2,0-1.24,1.85-7.21,1.85A26.81,26.81,0,0,1,317.09,173.32ZM349,277.47a546.39,546.39,0,0,1-4.74-87.89c0-.21-1.44,0-1.44.41-.82,14.61-.82,36.22-.2,50.84-.42,0-1-7.21-1.45-7-.2-1.85-.41-3.7-.41-5.14-.2-7.62-.61-15.24-.61-22.65,0-7.61.41-15,.41-22.64a2.82,2.82,0,0,0-3.3-2.47c-3.29-8.23-13.79-.61-18.11,2.27a7.89,7.89,0,0,0-1.64,2.06c-2.47,2.47-3.71,6.38-4.33,10.29-.82,7.41-.61,15-.61,22.43a341,341,0,0,0,2.67,45.9c.82,5.76,1,11.94,5.35,16.05a12.09,12.09,0,0,0,3.09,1.86c.21.2.21.41.41.62a13.23,13.23,0,0,0,15,2.67,3.46,3.46,0,0,0,2.05-3.91,8.9,8.9,0,0,0,4.33-3.5C345.91,279.73,349.2,279.52,349,277.47Zm-24.91-85.83h.21c-2.27,6.58-2.68,14.2-2.68,21.2-.2,9.26,0,18.52,0,27.78H321c-.61-4.94-1.23-9.88-1.64-14.82v-2.47c.41-9.46.2-20.37,3.29-29.64A4.17,4.17,0,0,1,324.09,191.64Z" transform="translate(-54.07 -143.06)"/><path d="M445.11,277.88l-.2.61a32,32,0,0,1-.82,6.39h-.21a6.33,6.33,0,0,1-1.85,2.67c-1.24,1.85-3.5,3.09-4.53,4.94-1,1.44-1.44,3.5-2.68,5.15-3.29,4.73-8,7.61-13,8a9.68,9.68,0,0,1-3.5.62,14.81,14.81,0,0,1-4.94-1c-8.44-3.7-10.09-12.55-11.32-18.52v-.41c-.41-2.06-.83-3.91-1.24-5.77-.82-1.23-3.7-6.79-3.7-6.79l-13.38-23.67s-.82-1.44-1.85-3.5v4.12c.2,5.14.41,10.08.61,15.23a18.4,18.4,0,0,0,.21,3.29,43.88,43.88,0,0,1-.41,11.53c-1,4.73-3.5,8.44-7.21,10.29-1.23,5.35-4.32,9.06-8.43,10.5a16.88,16.88,0,0,1-12.35,5.55,14.17,14.17,0,0,1-5.15-.82c-9.06-2.47-10.08-8.85-11.32-17.08a542.64,542.64,0,0,1-4.73-57.84c-.62-12.14-.83-24.49-1-36.43,0-2.68-.21-5.35-.21-8-.2-5.35,1-13.38,5.76-16.67,1.86-1.44,4.33-4.32,4.74-6.79.41-2.68,2.88-3.91,4.94-4.94a10.19,10.19,0,0,1,2.06-3.91A12.89,12.89,0,0,1,359.9,149c10.5,0,20.17,12.14,21.82,14.41,2.06,2.67,4.12,5.56,6.18,8.64l.61-1.23c1-2.06,2.68-3.5,4.12-5.15s2.26-3.91,3.5-5.76c1-1.65,2.67-2.68,3.7-4.12,2.27-3.91,6.59-6,11.32-6a17.24,17.24,0,0,1,9.68,2.89l1.85,1.23,1.65,1.44.2.62a8.75,8.75,0,0,1,8,7q2.78,13.28,4.94,26.55c2.26,15,4.11,30,5.35,45.07.62,7,1,14.21,1.24,21.41.2,7,0,14.2.82,21.2ZM350.44,275c-.62-14.62-1.24-31.91-1.86-46.31-.41-14.41-.82-28.82-1-43-.2-6.59-.41-13.18-.2-19.76a24,24,0,0,0-1.65,10.7c.21,14.82.41,29.64,1,44.25.62,14.82.82,31.08,2.06,45.7C349.61,275.41,350.44,275,350.44,275Zm86.44,8.64c-1.65-25.32-3.91-50.84-8-75.95-1.85-12.35-3.91-24.9-7.2-36.84-1-3.91-2.26-7.82-3.09-11.73a3.53,3.53,0,0,0-1.44-1c-3.5-2.47-9.67-2.88-12.14,1.64,0,.21-.21.21-.21.42a10.11,10.11,0,0,0-3.5,3.7c-2.26,4.12-.41,8,.62,11.94,2.06,7.41,3.29,14.82,4.74,22.23,1.85,10.49,4.11,21.4,5.14,31.69-1-2.05-2.06-4.11-3.29-6.38a4.06,4.06,0,0,0-.41-2.05c-4.12-8.44-8.44-16.68-13.18-24.7-5.55-10.09-11.32-20-18.32-29.23-3.91-5.15-15.64-17.29-22-8.85a8.23,8.23,0,0,0-1.64,4.73,8.61,8.61,0,0,0-3.92,1.86c-.61,8.85-.2,17.9,0,27,.42,14,.62,28.2,1.24,42.19.62,17.29,1.23,34.58,2.26,51.87a10.44,10.44,0,0,0,5.77,3.91A9.91,9.91,0,0,0,370,285.7c8.44-1.24,6.17-13.17,6-19.56-.21-8.23-.41-16.46-.83-24.69,0-14,.21-28,0-42,1,1.44,2.06,3.09,3.3,4.53l35.81,64c.41,2.26.82,4.53,1.24,7,1,5.35,2.26,11.73,7.82,14.2a4.21,4.21,0,0,0,4.11,0C431.32,289.2,434.62,286.73,436.88,283.64Zm-64.63-20c.41,4.11.62,8.23.83,12.14a13,13,0,0,1-1.65,7c1.23-5.15-.82-9.88-.82-13.18l.2-12.35a.65.65,0,0,1,.41-.2l.62-.62C372.05,258.94,372.25,261.21,372.25,263.68Zm66.48,9.05c.21-36.43-4.32-72.86-11.73-108.67-.41-2.06-2.88-2.06-3.91-.83a2.12,2.12,0,0,0-.62,2.27c8.44,38.28,13,77.39,15.65,116.7.2-.41.41-.62.82-.62A56.78,56.78,0,0,0,438.73,272.73Z" transform="translate(-54.07 -143.06)"/><path d="M97.25,322.64a12,12,0,0,1-1.3,1.72,8.16,8.16,0,0,1-1.55,2.28c-2.05,3.27-5.72,5-11,5a20.87,20.87,0,0,1-2.28-.08c.4,2.37.81,4.74,1,7.11a15,15,0,0,1-.49,6.85,10.21,10.21,0,0,1-3.18,4.9,10.22,10.22,0,0,1-2.94,4.09,6.54,6.54,0,0,1-4,1.63,4.15,4.15,0,0,1-3.19-1.55,1.47,1.47,0,0,1-.4-.57,2.41,2.41,0,0,1-1.31-1.06A9.22,9.22,0,0,1,65.41,349a1.88,1.88,0,0,1-.09-.66l-2-12.65c-.49-2.78-.9-5.72-1.3-8.74A45.42,45.42,0,0,1,55.61,324a2.58,2.58,0,0,1-1.39-3,2.67,2.67,0,0,1,.33-.74,1.07,1.07,0,0,1-.17-.57,6.43,6.43,0,0,1,.49-5.06,5.44,5.44,0,0,1,2.21-2.12,5,5,0,0,1,.65-1.88.32.32,0,0,0,.08-.17c-.57-2-1.22-3.92-1.88-5.71a5,5,0,0,1,.25-3.76,5.25,5.25,0,0,1,1.63-1.88,3.85,3.85,0,0,1,1.06-1.71A1.48,1.48,0,0,1,59,297a5,5,0,0,1,1.63-1.88,4,4,0,0,1,1.63-2.2,8.28,8.28,0,0,1,4.9-1.47,14.46,14.46,0,0,1,6.54,1.79,84.68,84.68,0,0,1,8,4.82,125.69,125.69,0,0,1,14.94,11.6,5,5,0,0,1,1.63,3.1,10.21,10.21,0,0,1,1,2.78A7.86,7.86,0,0,1,97.25,322.64Zm-.49-6.7a7.71,7.71,0,0,0-1-2.45,2.07,2.07,0,0,0-.81-1.87,130.91,130.91,0,0,0-14.62-11.44c-2.53-1.63-5.06-3.26-7.76-4.65s-6.12-2.37-8.82-.49a1.93,1.93,0,0,0-.81,1.71,2.5,2.5,0,0,0-1.72,3.11c1.23,3.51,2.29,7.1,3.27,10.69l-.49-.24a3.71,3.71,0,0,0-4.09,1.63c-.89,1.55-.49,4.09,1.31,4.9s3.59,1.64,5.47,2.37c.08.49.25.9.33,1.39-2.45-.9-4.9-1.88-7.27-3-.16-.08-.24.08-.16.16a68.21,68.21,0,0,0,7.51,3.43c.49,3.35,1,6.78,1.55,10.13.41,2.85.9,5.63,1.31,8.41.24,1.39.49,2.77.73,4.24.17,1.15.17,2.62.82,3.6.08.08.08.08.08,0a8.82,8.82,0,0,0-.08-3.27c-.24-1.39-.41-2.78-.57-4.25a23.86,23.86,0,0,1-.33-2.53,31.82,31.82,0,0,0,1,4.17c.08,1.06.25,2.12.41,3.1.16,1.47.16,3,1.06,4.16s2.7.33,3.6-.4a8.51,8.51,0,0,0,2.44-3.76,15.51,15.51,0,0,0,.41-5.88c-.41-4-1.22-8.08-2-12.09-.16-.89-.4-1.87-.57-2.85.74.16,1.47.24,2.21.41,5.06.81,13.06,2,16-3.35A5.44,5.44,0,0,0,96.76,315.94Zm-6.2.33a1.71,1.71,0,0,1,.32.49c-.24.08-.4.08-.65.16a9.16,9.16,0,0,1-1.63.17,27.85,27.85,0,0,1-8.25-.66A50.5,50.5,0,0,1,75.12,315c-.65-3.18-1.47-6.28-2.28-9.39,1.88.82,3.67,1.72,5.47,2.62,2.37,1.3,4.73,2.69,7.1,4.08C87.29,313.41,89.41,314.56,90.56,316.27ZM76.92,336c.08,0-.08-1,0-1.06.08.49.41,2,.49,2.53.57,2.7.9,5.47-.24,8a3,3,0,0,1-.82.58c-.08-.09-.08-.17-.16-.25,1.3-2.45,1.14-5.47.89-8.17C77,337,77,336.52,76.92,336Zm11.92-12.57c0,.08,1.72-.09,1.72,0-.49.08-2.62.4-3.11.49a39.22,39.22,0,0,1-9.71-.66,3.55,3.55,0,0,1-.9-.16c-.08-.16-.08-.41-.16-.66a45.44,45.44,0,0,0,4.49.82A29.44,29.44,0,0,0,88.84,323.38Z" transform="translate(-54.07 -143.06)"/><path d="M143.88,338.81a2.77,2.77,0,0,1-1.15,1.22,6.48,6.48,0,0,1-1.71,2.78,3.74,3.74,0,0,1-2.45,1.8A133,133,0,0,0,121,349.26c-2.53.9-5.22,1.88-7.92,2.94a1.18,1.18,0,0,1-.49.16l-.33.17c-.73.32-1.47.65-2.36,1A13.74,13.74,0,0,1,106,355.3a12.17,12.17,0,0,1-2.45.74l-.25.08h-.24a1.87,1.87,0,0,1-.66-.08,6.21,6.21,0,0,1-1.22.08,5.14,5.14,0,0,1-4.82-2.86,5.74,5.74,0,0,1-.24-.65A7,7,0,0,1,94,350.08a7.31,7.31,0,0,1-.73-4.49c-.25-1.88-.41-3.76-.57-5.64-.09-.81-.17-1.71-.25-2.61L90.63,319a7.89,7.89,0,0,1-1.47-5.23,8.91,8.91,0,0,1,1.56-4.08,2.53,2.53,0,0,1-.33-1.55,2.81,2.81,0,0,1,1.47-2.29,13.53,13.53,0,0,1,1.47-.82,3.11,3.11,0,0,1-.08-.9,2.81,2.81,0,0,1,1.47-2.28c5.8-3.11,12-4.9,17.88-6.45a8.73,8.73,0,0,1,1.88-.49h.08l.82-.17a76.77,76.77,0,0,1,9.71-1.55c.82-.08,1.64-.08,2.45-.08l.17,1.31,2.69-.74,1.06-.33.58.17a11.64,11.64,0,0,1,1.87.41,8,8,0,0,1,1.56.57l.32.16.33.16c.49.41,1,.82,1.39,1.23l.49.49.24.57a12,12,0,0,1,.57,6.29l-.24,1.55-1.47.49-1,.25a8.94,8.94,0,0,1-.08,1.46,6.41,6.41,0,0,1,2.61,2.54,7.58,7.58,0,0,1,.41.81.63.63,0,0,0,.16.33,6,6,0,0,1,2,3.35,6.44,6.44,0,0,1-2.94,6.53c0,.08,0,.08-.08.16,3.1.58,7,3.27,7.68,12.91A6.4,6.4,0,0,1,143.88,338.81Zm-.57-4.9c-.33-4.66-1.88-11.84-8.17-10.53-.9.24-1.72.65-2.61.89l-3.19,1c-2,.66-3.92,1.39-5.88,2.13-1.22.41-2.45.89-3.67,1.39-2.37.89-4.66,1.79-6.94,2.69-1.8.74-3.6,1.47-5.39,2.29-.08.08-.17.08-.25.16v-.33c-.16-1.79-.32-3.51-.49-5.31,2.29-1.14,4.49-2.28,6.86-3.26a88.46,88.46,0,0,1,11.6-3.92c2-.49,4-.9,6-1.23s3.67-.32,5.39-1.14a3.94,3.94,0,0,0,2.12-4.08,3,3,0,0,0-1.39-2c-.08,0-.08,0-.16-.08a5.19,5.19,0,0,0-.41-1,4.42,4.42,0,0,0-.33-.65c-1.14-2-3.1-2-5.14-2-1,.08-1.88.17-2.86.33l-1.06.24c-2.61.74-5.31,1.47-7.92,2.13-4.66,1.71-9.15,3.67-13.72,5.63,0-.41-.49-3.35-.57-4.16l.16-.17c2.53-1.06,5.15-2,7.76-2.94.9-.41,9-2.86,13.15-4a1.22,1.22,0,0,0,.49-.16c1.87-.49,3.75-1.06,5.55-1.63,1.39-.41,2.78-.82,4.08-1.23a9.86,9.86,0,0,0-.49-5.06l-1.3-1.06c-.41-.17-.82-.33-1.31-.49a8.87,8.87,0,0,0-1.63-.33c-4.25,1.14-8.5,2.29-12.82,3.27a127.6,127.6,0,0,0-16.5,4.24c-1.71.57-3.51,1.23-5.23,2a4.38,4.38,0,0,1-.32.65,5.56,5.56,0,0,0-2,3.84,5.16,5.16,0,0,0,1.3,4l1,9.31q.49,4.9,1,9.8c.25,2.86.41,5.8.9,8.58a4.52,4.52,0,0,0,2.7,5.39,1.73,1.73,0,0,0,.08,1.14c.65,1.39,2.12,1.47,3.43,1.23a5.74,5.74,0,0,0,.81-.09,31.89,31.89,0,0,0,5.56-2l.08-.08c.9-.41,1.79-.73,2.69-1.14.17-.08.41-.16.57-.25h.09c2.69-1.14,5.47-2.12,8.24-3.1a123.69,123.69,0,0,1,17.89-4.74.93.93,0,0,0,.81-.81A3.82,3.82,0,0,0,143.31,333.91Zm-47.37-29.4a46.1,46.1,0,0,1,5.47-2.12,145,145,0,0,1,16.5-4.33c3.18-.73,6.45-1.55,9.63-2.37a20.22,20.22,0,0,0-2.2.08,82.88,82.88,0,0,0-10.21,1.56l-1.88.49c-5.87,1.55-11.92,3.34-17.31,6.2C95.78,304.19,95.78,304.43,95.94,304.51Zm12.74,42.06c1.55-.49,3-1.07,4.49-1.64v.17c-1.22.65-2.45,1.3-3.75,2-.58.32-1.23.65-1.88,1a.3.3,0,0,1-.25.08,13.5,13.5,0,0,1-3.34.08A47.08,47.08,0,0,0,108.68,346.57Zm13.39-26.38a10.06,10.06,0,0,0-1.38.57c-4.09,1.63-8.33,3.19-12.34,5.23a4,4,0,0,0,1.31-2.29c1.55-.41,3.1-.9,4.74-1.39,2.53-.81,5.06-1.55,7.59-2.36Z" transform="translate(-54.07 -143.06)"/><path d="M179.39,313.09a7.39,7.39,0,0,1-1.14,2.28,8.91,8.91,0,0,1,2.7,4,8.5,8.5,0,0,1-1.56,7,6.7,6.7,0,0,1-1.55,1.55,8.72,8.72,0,0,1-1.3,2.45,6.91,6.91,0,0,1-5.47,2.94c-.33,0-.66-.08-.9-.08a113.59,113.59,0,0,0-12.74-1c.16,1.87.33,3.75.41,5.63v.65c.08,3.68.24,9.07-3.68,12a8.21,8.21,0,0,1-4.57,5,6.16,6.16,0,0,1-2.7.57,5.46,5.46,0,0,1-5.47-4.16c-1.71-6.46-1.71-13.56-2.45-20.17-.32-.17-.57-.33-.89-.49a7.38,7.38,0,0,1-2.54-10.05,8.82,8.82,0,0,1,1.56-1.88,68.1,68.1,0,0,0-2.13-8.82,10.42,10.42,0,0,1-.24-2.28,8.92,8.92,0,0,1-1.23-7.11,5.35,5.35,0,0,1,2.78-3.67c0-.16.08-.25.08-.33a5.82,5.82,0,0,1,5.8-4.49,5.22,5.22,0,0,1,3.1,1c2.7.74,5.39,1.39,8,2a3.63,3.63,0,0,1,.9-.16c.25,0,.41.08.57.08,3.84.73,7.76,1.31,11.44,1.71,1.63.17,3.18.25,4.73.33l1.15.08a7.49,7.49,0,0,0,1.38.08,16.15,16.15,0,0,1,4.25.49,3.9,3.9,0,0,1,.74.41,8.18,8.18,0,0,1,4.08,9.48A7.75,7.75,0,0,1,179.39,313.09Zm.58-5.64a5.61,5.61,0,0,0-3-6.69l-.09-.09a20.08,20.08,0,0,0-5-.4c-2-.17-4-.25-6-.49-3.92-.41-7.76-1-11.68-1.72-.24-.08-.4.08-.57.33-3.18-.74-6.37-1.47-9.55-2.37a3.3,3.3,0,0,0-5.23,1.63,6.2,6.2,0,0,0,1.47,6,3.48,3.48,0,0,0,0,2.21,93.2,93.2,0,0,1,2.45,10.78,4.65,4.65,0,0,0-2.2,2,4.89,4.89,0,0,0,1.71,6.61,6.41,6.41,0,0,0,1.88.82c.33,2.78.65,5.55.9,8.41.16,1.55.41,3.1.57,4.74a13.37,13.37,0,0,0,.49,2.93,16.63,16.63,0,0,0,.57,5.23c.57,2.13,2.86,2.7,4.66,1.88,4.32-1.88,3.92-7.27,3.83-11.19a87.18,87.18,0,0,0-1.38-12.17c1.38-.08,2.77-.08,4.16-.08a97.1,97.1,0,0,1,15.35,1c3.51.41,5.88-3.75,5.07-6.69a5.73,5.73,0,0,0-5.48-3.92,112.39,112.39,0,0,0-14-.57c-2.45.08-4.82.16-7.27.4h-.08c-.16-.89-1.63-6.2-2-7.83,1.63.4,3.19.73,4.49,1,3.51.65,7.11,1.06,10.62,1.38l5.14.49a3.43,3.43,0,0,1,.9.08h.25a6.78,6.78,0,0,0,3.83.9A5.17,5.17,0,0,0,180,307.45Zm-35.53-10.53c3,1.14,7.35,1.79,10.46,2.61h-1.31c-.73-.16-6.21-.33-8.17-1.14A8.36,8.36,0,0,0,144.44,296.92Z" transform="translate(-54.07 -143.06)"/><path d="M208.22,330.07c-.49,5.06-1.39,10.29-4.33,14.54a15.78,15.78,0,0,1-1.8,2.2,11.83,11.83,0,0,1-1.06,1.8,19.85,19.85,0,0,1-3.43,3.84,12.52,12.52,0,0,1-7.1,3.51,10.25,10.25,0,0,1-1.64.16c-.4,0-.89-.08-1.3-.08a9.56,9.56,0,0,1-1.55.08,13.22,13.22,0,0,1-8.09-3c-3.75-3.19-6.12-7.92-7.18-14.54-1.8-11.51.16-22.94,5.63-32.09a27.85,27.85,0,0,1,3.59-6.29,1.71,1.71,0,0,1,.66-.65,19.6,19.6,0,0,1,2.2-3.35,2.5,2.5,0,0,1,2.12-1.06,3.18,3.18,0,0,1,1.23.25,6.17,6.17,0,0,1,2.29-1,11.1,11.1,0,0,1,3.75-.82,11.82,11.82,0,0,1,1.64-.08,6.7,6.7,0,0,1,3.43.81,9.35,9.35,0,0,1,2.61,2.7,4,4,0,0,1,2.69,2,55.21,55.21,0,0,1,3.27,7.35,61.34,61.34,0,0,1,1.71,7.84A62.13,62.13,0,0,1,208.22,330.07ZM205,314.56a61.92,61.92,0,0,0-1.63-7.44,52.78,52.78,0,0,0-3.1-6.85,1.5,1.5,0,0,0-1.88-.66,8.27,8.27,0,0,0-2.45-3.1,5.2,5.2,0,0,0-3.51-.33,7.46,7.46,0,0,0-3.19.66c-2.61.57-4.57,3.1-6,6.12a1.76,1.76,0,0,0-.65,0c.32-.9.65-1.8,1.06-2.69a17.67,17.67,0,0,1,1.31-2.45c.08-.17-.09-.25-.17-.09a22.87,22.87,0,0,0-3.26,5.88c-.09.09-.09.17-.17.17-5.47,9.14-6.94,19.92-5.31,30.37.82,4.82,2.46,9.72,6.29,13a10.22,10.22,0,0,0,7.92,2.29,15.22,15.22,0,0,0,2.7,0,9.88,9.88,0,0,0,5.71-2.95,19.63,19.63,0,0,0,3-3.34c2.69-3.84,3.43-8.82,3.83-13.31A55.76,55.76,0,0,0,205,314.56Zm-9.55-.41c.65,4,.9,8.16,1.22,12.25a35.22,35.22,0,0,1-1.87,11.92,12,12,0,0,1-1.15,2.78,4,4,0,0,1-2.2,2c-3.51,1.06-6.37-2.29-7.68-5,0-.08,0-.08-.08-.08a3.73,3.73,0,0,0,2.94.57,3.08,3.08,0,0,0,.9-.4,61.3,61.3,0,0,1-1.64-16.42c.17-1.88.33-3.75.66-5.63.08-.08.08-.17.16-.33a36.89,36.89,0,0,1,3.27-9.72,4.47,4.47,0,0,1,1.14-1.55c-4.65,9.8-4.82,21.81-2.53,32.42a3.57,3.57,0,0,0,.33-2.45,65.75,65.75,0,0,1-.33-18.37,56,56,0,0,1,2-9.07,15.28,15.28,0,0,1,1.06-2.77h.41a.63.63,0,0,1,.33.16,17.81,17.81,0,0,1,.81,1.8c.58,1.39,1.07,2.86,1.56,4.32C195.07,311.7,195.23,312.92,195.48,314.15Zm-2,12.17a78.34,78.34,0,0,0-1.23-15.19V311a39.66,39.66,0,0,0-1.14,5.47,60.11,60.11,0,0,0,.33,17.56,6.27,6.27,0,0,1-.57,4.08l-1.23,2.54a.63.63,0,0,0,.41.08,1.41,1.41,0,0,0,.57-.08,2.6,2.6,0,0,0,.82-.74c.32-.82.65-1.55,1-2.37C193.68,333.91,193.6,330.15,193.52,326.32Z" transform="translate(-54.07 -143.06)"/><path d="M249.53,318.8a12.59,12.59,0,0,0-.16,1.64,6.25,6.25,0,0,1-2.94,4.4,6,6,0,0,1-5.39,4.74h-.32a5.57,5.57,0,0,0-1.15-.08c.25.49.57,1.06.82,1.55.16.33.33.74.49,1.06,2.29,4.66,4.9,9.88,4.16,15.52a4.58,4.58,0,0,1-2.85,3.75v.25a4.72,4.72,0,0,1-4.82,4.16,5.22,5.22,0,0,1-1.55-.24h-.41a9.18,9.18,0,0,1-1.47-.16,3.43,3.43,0,0,1-.9.08,3.15,3.15,0,0,1-1.47-.33l-.9-.41-.33-1c-1.3-3.43-2.85-7-4.73-11.27-.9-2.12-2.53-6.37-2.53-6.37-.25-.4-.41-.81-.66-1.22a3.62,3.62,0,0,1,.09,1,57.69,57.69,0,0,1-1.31,8c0,1.23-.08,2.29-.16,3.11l-.33.65a11.85,11.85,0,0,1-2.45,3.18h-.08V351l-.33.65a11.69,11.69,0,0,1-2.45,3.18,5.87,5.87,0,0,1-3.59,1.31,4.87,4.87,0,0,1-3.76-1.8,7.2,7.2,0,0,1-.49-.81,3.7,3.7,0,0,1-2-3.11,17.32,17.32,0,0,1-.33-3.51,15,15,0,0,0-.16-2c-.16-1.55-.41-3.26-.74-5.3-.65-4.41-.48-10.21-3.59-13.72-2.12-2.45-5.14-4.58-4.08-8.33a5.28,5.28,0,0,1,2.69-3.43,4,4,0,0,0,.17-.57c0-.17.08-.25.08-.41-.33-1.72-.65-3.27-1-4.82l-.41-1.55,1.14-.9a6.67,6.67,0,0,1-.4-6.53,5.76,5.76,0,0,1,2.28-2.45,9.76,9.76,0,0,1,.57-1.55c.74-1.64,2.62-3.52,6.78-3.52a25.48,25.48,0,0,1,4.74.58l.32.08a3.51,3.51,0,0,1,1.56.57c.4.16.89.33,1.38.49.09.08.09.08.17.08,9.31,2.94,17.64,8.66,25.72,14.13a5.4,5.4,0,0,1,1.88,2.37c.82.65,1.71,1.3,2.69,2A6.58,6.58,0,0,1,249.53,318.8Zm-4.08-4.57c-1.06-.82-2.2-1.71-3.35-2.53a3.09,3.09,0,0,0-1.14-1.8c-8-5.39-16.09-10.94-25.07-13.8-.08,0-.16-.08-.24-.08-.58-.25-1.15-.41-1.72-.65a1,1,0,0,0-.73-.33c-2.7-.49-7.6-1.55-9.15,1.47-.9,1.88,0,4.16,1.55,5.47a7.35,7.35,0,0,1-1.71,1.8c.65,2.77,1.22,5.63,1.79,8.41a9.06,9.06,0,0,0-1.47.08c-2.45,0-3.43,4.08-1.14,5.55a14.42,14.42,0,0,0,2.45,1.31l-1.88.24c.9.33,1.8.66,2.7.9a.6.6,0,0,1,.49.57h.49c.16,1,.32,1.88.49,2.86q1,5.76,2,11.52c.24,1.79.49,3.59.73,5.39a39.45,39.45,0,0,0,.41,5.47,1.27,1.27,0,0,0,1.47,1.3,3.52,3.52,0,0,0,.49,1.31,2.59,2.59,0,0,0,3.67.16,7,7,0,0,0,1.88-2.45,8.46,8.46,0,0,0-.08-1.38,98.93,98.93,0,0,0-.41-12.17c-.16-3.76-.49-7.51-.9-11.19,2.13.08,4.33.25,6.46.33.4.73.89,1.55,1.38,2.28v.09a24.08,24.08,0,0,1,1.31,2.53c1.55,3,3.76,8.41,4.65,10.53,1.64,3.76,3.27,7.6,4.74,11.43a1,1,0,0,0,1.06-.24c0,.08.08.08.17.08a4,4,0,0,0,2.2.24c1.39.58,3.27.17,3.51-1.63.66-5.31-2.2-10.45-4.41-15.1a82.07,82.07,0,0,0-5.88-10.13c3.84.32,7.68.65,11.52.9a3.15,3.15,0,0,0,3-2.78l.24-1.71A4.23,4.23,0,0,0,245.45,314.23Zm-31.85-9.55c7,1.63,13.56,5.14,19.85,9.47l-7.92-1c-1.88-1.55-4.58-3.76-7-2.21a2.21,2.21,0,0,0-.73,1.23c-.41-.08-.9-.08-1.31-.17-.32-1.71-.73-3.43-1.14-5.14-.08-.74-.9-.74-1.31-.33-.08-.16-.08-.41-.16-.57C213.77,305.57,213.69,305.08,213.6,304.68ZM220.38,337c-.41-4.9-.81-9.8-1.63-14.53h-.65c1,6.69,1.22,13.47,1.55,20.25C220,340.77,220.63,340,220.38,337Z" transform="translate(-54.07 -143.06)"/><path d="M293.46,349.26a6.65,6.65,0,0,1-2,2.21,12.17,12.17,0,0,1-.81,1.79,7.44,7.44,0,0,1-6.13,3.68,5.26,5.26,0,0,1-3.59-1.31,6.57,6.57,0,0,1-4.66-6.2,20.5,20.5,0,0,1-.08-2.21,88.81,88.81,0,0,0-2.2-15.84c-1.15,4.57-2.21,9.14-3.11,13.72a3.2,3.2,0,0,1-.4.9,13.06,13.06,0,0,1-.41,1.79,6.25,6.25,0,0,1-2.78,3.68c0,.08-.08.24-.08.32-.74,2.29-2,3.68-4,4.17a5.15,5.15,0,0,1-1.06.08,6.48,6.48,0,0,1-1.23-.16,2.23,2.23,0,0,1-1-.25,3.17,3.17,0,0,1-2.53-1.47,11.23,11.23,0,0,1-1.31-3.1,10.81,10.81,0,0,1-1.06.73,6.29,6.29,0,0,1-3.67,4.41,3.65,3.65,0,0,1-1.64.41,3.58,3.58,0,0,1-1.87-.57,5.18,5.18,0,0,1-3.76-1.47c-2-1.88-2.29-4.66-2.53-6.7a1.79,1.79,0,0,1-.08-.65,111,111,0,0,1-1.15-14.29c0-1.06,0-2.12-.08-3.18-.08-3.76-.16-7.6-.16-11.44v-2.53a59.67,59.67,0,0,1,.57-12.08,3,3,0,0,1,2.61-2.45,5,5,0,0,1,.25-1.56,2.93,2.93,0,0,1,3-2.45h.16a4.82,4.82,0,0,1,2-1.87,7.51,7.51,0,0,1,3.92-1.15,6.63,6.63,0,0,1,2.13.33,6.76,6.76,0,0,1,4.4,3l1.47,3c.09.33.17.74.25,1.15.16,1.47.41,2.94.65,4.57.08.41.17.9.25,1.39q.85,5,1.71,9.8c1.06-4.74,2.21-9.56,2.86-14.38a5,5,0,0,1,2.78-3.59.74.74,0,0,0,.08-.41,5.19,5.19,0,0,1,3.84-4,9.06,9.06,0,0,1,2.12-.24,8.21,8.21,0,0,1,2,.24,6.24,6.24,0,0,1,2.12-.41,5.16,5.16,0,0,1,3.84,1.64,22,22,0,0,1,5.31,10.37c.9,3.67,1.63,7.35,2.29,11.18.16,1.23.4,2.54.65,4.17.24,1.22.49,2.37.73,3.59.33,1.64.66,3.19,1,4.82.25,1.06.41,2.12.66,3.18a10.8,10.8,0,0,0,.32,1.56,44,44,0,0,1,1,5.79A13.27,13.27,0,0,1,293.46,349.26Zm-1.06-8c-.24-2.37-.82-4.74-1.3-7.11-.58-2.69-1.07-5.3-1.56-8-.24-1.14-.49-2.37-.81-3.59-.17-1.39-.41-2.86-.66-4.25-.65-3.67-1.3-7.35-2.2-11a19,19,0,0,0-4.74-9.15,3,3,0,0,0-3.92-.16,4.45,4.45,0,0,0-3.59-.33,2.59,2.59,0,0,0-2,1.8c-1,7.1-2.78,14.13-4.33,21.15-1.06,4.57-2,9.15-3.1,13.72-1.88-8.25-3.68-17.8-5.06-26.21-.33-2.05-.74-4.09-.9-6.05a4.09,4.09,0,0,0-.9-2.2A4.58,4.58,0,0,0,254,297a4.87,4.87,0,0,0-4.08.57,2.52,2.52,0,0,0-1.39,2.21,10.43,10.43,0,0,0-.57,5c0,2,.08,3.83.08,5.79v1.88c-.16,0-.24-1.79-.41-1.79A87.6,87.6,0,0,0,247,300.1c-.08-.41-.9-.41-1,0-.9,4.66-.57,9.56-.49,14.21,0,4.82.08,9.72.24,14.54a116.39,116.39,0,0,0,1.07,14c.24,2,.4,4.41,1.87,5.88a2.79,2.79,0,0,0,2.86.57,1,1,0,0,0,.25.33,1.09,1.09,0,0,0,1.39.16c2.61-1.14,2.36-4.16,2.28-6.53-.16-6.86-.41-14.05-.73-20.91a15.36,15.36,0,0,0,.65,2.05c.65,2.69,1.39,5.47,2.12,8.16L261,345.1a12,12,0,0,0,1.39,3.67.51.51,0,0,0,.74.25,1.88,1.88,0,0,0,1.14.32,1.47,1.47,0,0,0,1.06.09,3.12,3.12,0,0,0,2.21-2.37c.24-.82.41-1.64.57-2.45-.08.24.24.32.33,0,.65-3.43,1.79-8.5,2.85-13s3.19-11.67,5.15-17.39c.73,3.43,1.47,6.86,2.28,10.29a90.31,90.31,0,0,1,2.86,20.82,4.18,4.18,0,0,0,3.35,4c2,2,5.06.74,6.29-1.39A11.85,11.85,0,0,0,292.4,341.26Zm-35.6-34.62c.73,4.16,1.79,10.12,2.61,14.29a5.15,5.15,0,0,1-.9-1.88.62.62,0,0,0-.16-.41c-1.06-5.06-2.2-10-3.43-14.94a.65.65,0,0,0,.08-.33,3,3,0,0,0,1.15-.49A36.18,36.18,0,0,1,256.8,306.64Zm19,4.65c.16.57.24,1.14.4,1.63-2,6.13-3.83,12.33-5.3,18.54h-.09a.29.29,0,0,1-.24-.08c.24-1.23.49-2.45.65-3.68C272.56,322.15,274,316.68,275.83,311.29Z" transform="translate(-54.07 -143.06)"/><path d="M323.1,352.2c-1.14,4.66-5.63,5.88-8.74,3.27a32.91,32.91,0,0,1-3.34-4.66c-1.72-3.43-3.27-10.29-4.41-14.86-1.15,6.12-.17,10-3.52,10.78-1.38,4.9-2.2,3.1-2.85,4.08-.09,0-2.37,6.86-9,5.07-3.75-1.07-5.79-4.58-5.22-8.74.49-3.68,1.14-7.19,1.88-10.62-2.45-2.69-5.07-4.57-4.66-8.73a8.59,8.59,0,0,1,3.19-5.64c.65-.9.73-3.35,5.63-5.63a68.44,68.44,0,0,1,3.84-11.6c.9-2.12,2-5,4.08-6.78.9-1.22,2.53-6,7.76-6a6.88,6.88,0,0,1,5,2.37,6.84,6.84,0,0,1,5.06,5.55,2.74,2.74,0,0,1,1.88,2.45c.08,4.33.25,9,.74,13.72,5,1.55,7.67,9,3,13.64.81,3.84,2.12,10.29,2.61,14.37C326.37,346.73,326.2,350.57,323.1,352.2Zm.41-7.59c-.57-4.74-2-11-2.94-15.68A5.7,5.7,0,0,0,318,318.39c-.57-4.73-1-16.57-1.06-15.76-.33,2.62-.49,5.31-.58,8-.08,0-.08,0-.16-.09-.32-3.1-.65-6.28-.9-9.39a4.29,4.29,0,0,0-4.16-4.24,3.78,3.78,0,0,0-3.51-2.13c-4,.09-5.56,4.9-6.94,8a79.51,79.51,0,0,0-4.41,15.1c-9.39,1.47-9.39,10-4.33,11.27a.9.9,0,0,1-.08.66,18.1,18.1,0,0,0,2.12-.17,133.06,133.06,0,0,0-2.61,13.8c-1,7.35,8.73,8.42,9.39,1.31l.41-3.51s1.38-8,2.36-11.84h.74a63.75,63.75,0,0,0-2.61,14.13c-.08.89,1.3.89,1.3,0a82.9,82.9,0,0,1,2.37-14.13l6.13-.08c.65,2.77,3.75,16.33,5.3,16.82C318.61,351.79,324.41,351.71,323.51,344.61Zm-14.7-31.77c.25,2,.57,4.08.9,6-1.06.09-2.12.17-3.19.33C307.18,317.09,308,314.88,308.81,312.84Z" transform="translate(-54.07 -143.06)"/><path d="M361.72,345.34l-.08.25a12.25,12.25,0,0,1-.33,2.53h-.08a2.52,2.52,0,0,1-.73,1.06c-.49.73-1.39,1.22-1.8,2-.41.57-.57,1.39-1.06,2a7.12,7.12,0,0,1-5.14,3.19,3.9,3.9,0,0,1-1.39.24,5.69,5.69,0,0,1-2-.41c-3.35-1.47-4-5-4.49-7.35v-.16c-.17-.82-.33-1.55-.49-2.29-.33-.49-1.47-2.69-1.47-2.69l-5.31-9.39s-.33-.57-.74-1.39v1.63c.08,2,.17,4,.25,6.05a7.6,7.6,0,0,0,.08,1.3,17.74,17.74,0,0,1-.16,4.57,5.73,5.73,0,0,1-2.86,4.09,5.44,5.44,0,0,1-3.35,4.16,6.7,6.7,0,0,1-4.9,2.21,5.53,5.53,0,0,1-2-.33c-3.59-1-4-3.51-4.49-6.78a217.14,217.14,0,0,1-1.88-22.94c-.25-4.82-.33-9.72-.41-14.46,0-1.06-.08-2.12-.08-3.18-.08-2.13.41-5.31,2.29-6.62a5.23,5.23,0,0,0,1.87-2.69c.17-1.06,1.15-1.55,2-2a4.15,4.15,0,0,1,.82-1.55,5.12,5.12,0,0,1,4.17-2.21c4.16,0,8,4.82,8.65,5.72.82,1.06,1.63,2.2,2.45,3.43.08-.16.16-.33.25-.49a9.88,9.88,0,0,1,1.63-2,21.79,21.79,0,0,0,1.39-2.29c.41-.65,1.06-1.06,1.47-1.63a5,5,0,0,1,4.49-2.37,6.88,6.88,0,0,1,3.84,1.14l.73.49.66.57.08.25a3.46,3.46,0,0,1,3.18,2.78q1.11,5.27,2,10.53c.9,6,1.63,11.92,2.12,17.88.25,2.78.41,5.64.49,8.5s0,5.63.33,8.41Zm-37.56-1.14c-.25-5.8-.49-12.66-.74-18.38s-.32-11.43-.4-17.06c-.09-2.62-.17-5.23-.09-7.84a9.54,9.54,0,0,0-.65,4.25c.08,5.87.16,11.75.41,17.55s.33,12.33.82,18.13C323.83,344.36,324.16,344.2,324.16,344.2Zm34.3,3.43c-.66-10.05-1.55-20.17-3.19-30.13a123.42,123.42,0,0,0-2.86-14.62c-.4-1.55-.89-3.1-1.22-4.66a1.47,1.47,0,0,0-.57-.4c-1.39-1-3.84-1.15-4.82.65,0,.08-.08.08-.08.16a4.08,4.08,0,0,0-1.39,1.47c-.9,1.64-.16,3.19.24,4.74.82,2.94,1.31,5.88,1.88,8.82.74,4.16,1.64,8.49,2,12.57-.4-.81-.81-1.63-1.3-2.53a1.54,1.54,0,0,0-.17-.81c-1.63-3.35-3.34-6.62-5.22-9.8a95.8,95.8,0,0,0-7.27-11.6c-1.55-2-6.21-6.86-8.74-3.51a3.24,3.24,0,0,0-.65,1.88,3.48,3.48,0,0,0-1.55.73c-.25,3.51-.08,7.11,0,10.7.16,5.55.24,11.19.49,16.74.24,6.86.49,13.72.9,20.58a4.15,4.15,0,0,0,2.28,1.55,3.94,3.94,0,0,0,4.66-1.71c3.35-.5,2.45-5.23,2.36-7.76-.08-3.27-.16-6.54-.32-9.8,0-5.55.08-11.11,0-16.66.41.57.82,1.22,1.31,1.8l14.2,25.39c.17.9.33,1.8.49,2.78.41,2.12.9,4.65,3.11,5.63a1.64,1.64,0,0,0,1.63,0A4.84,4.84,0,0,0,358.46,347.63Zm-25.64-7.92c.16,1.63.24,3.26.32,4.81a5.15,5.15,0,0,1-.65,2.78c.49-2-.33-3.92-.33-5.23l.08-4.89a.27.27,0,0,1,.17-.09l.24-.24C332.73,337.83,332.82,338.73,332.82,339.71Zm26.37,3.59a207.61,207.61,0,0,0-4.65-43.12.89.89,0,0,0-1.56-.32.84.84,0,0,0-.24.9,314.57,314.57,0,0,1,6.21,46.3c.08-.17.16-.25.32-.25A22.17,22.17,0,0,0,359.19,343.3Z" transform="translate(-54.07 -143.06)"/><path d="M401,334.15a25.14,25.14,0,0,1-5.56,10.7,20.2,20.2,0,0,1-4.81,5.88,24.64,24.64,0,0,1-15.19,5.39,21.2,21.2,0,0,1-7.84-1.47,25.15,25.15,0,0,1-15.11-17.8,30.46,30.46,0,0,1-.41-9.39c1.23-10.62,9.64-21.4,18.05-27.6,1.72-1.23,3.43-2.29,5.14-3.35a5.05,5.05,0,0,0,.66-.33c1.63-1,3.67-2.2,6-2.2.16,0,.41.08.57.08a5.32,5.32,0,0,1,5.06,4.65,8.78,8.78,0,0,1,.33,4.09c-.08,1.3-.08,2.53-.08,3.92,0,2.77,0,5.3.16,7.75v1.64a10.33,10.33,0,0,1,1.8-1.39,7.24,7.24,0,0,1,3.59-1,7.69,7.69,0,0,1,6.37,3.51C403.2,322.56,402,330.07,401,334.15Zm-3.43-15.51a4.92,4.92,0,0,0-6.54-1.72c-2.45,1.39-2.77,4.17-1.71,6.54-.08-.08-.08-.25-.16-.33a9.51,9.51,0,0,1,.81,4,16.57,16.57,0,0,1-1.71,8.58,9.71,9.71,0,0,1-2.12,2.69,12.62,12.62,0,0,1-8.09,3.1c-.33,0-.73-.08-1.06-.08-5.31-.32-9.8-4.9-11.35-9.72a16.28,16.28,0,0,1-.82-5.63,7.21,7.21,0,0,1,.08-1.31,7.89,7.89,0,0,1,.17-1.14c1.3-6.94,6-12.49,11.51-16.74a9.33,9.33,0,0,0,1.06-.74c.17,5.23.33,10.46.49,15.77.08,2.61,0,5.3,1.15,7.84a5.36,5.36,0,0,0,5.22,3.1,1.2,1.2,0,1,0-.33-2.37c-2.36.41-3.51-2.21-4-4.08v-.25h.25a6.4,6.4,0,0,0,.65,1.55,3.93,3.93,0,0,0,2.29,2.13,1.76,1.76,0,0,0,.65,0c.08.16.25.24.49.4a.8.8,0,0,0,1.15-.48,15.53,15.53,0,0,0,.08-3.35c-.08-1.31-.17-2.7-.17-4.09-.08-2.61-.16-5.22-.24-7.75s-.17-10.62,0-12a5.86,5.86,0,0,0-.33-3.18,2.85,2.85,0,0,0-2.77-2.78c-2-.16-4,1.23-5.64,2.21a51.43,51.43,0,0,0-4.9,3.18,38.56,38.56,0,0,0-8.57,8.49,27.77,27.77,0,0,0-5.8,16.58,28.3,28.3,0,0,0,.57,5.31,22.51,22.51,0,0,0,13.56,15.84c6.86,2.78,14.94,1,20.49-3.51,3.43-2.7,5.47-7,6.54-11.19C399.69,328.93,400.26,322.8,397.57,318.64Zm-23.52,16.09a20.87,20.87,0,0,1-1.31-7.84V326l-.32-10.62a26.35,26.35,0,0,0-2.54,2.53A19.82,19.82,0,0,0,367.6,324l-.08.33a2.28,2.28,0,0,0-.08.65c0,.41-.09.73-.09,1.14a18.9,18.9,0,0,0,.09,2.21v.16c0,.08.08.08.08.16.08.33.08.74.16,1a17.94,17.94,0,0,0,.65,2v.17c.09.16.17.32.25.49s.32.57.49.81a7.57,7.57,0,0,0,1,1.55,1.81,1.81,0,0,0,.41.49,4.84,4.84,0,0,0,.57.66,5.33,5.33,0,0,0,.73.65c.17.16.33.25.49.41a10.7,10.7,0,0,0,1.64,1.06H374a.61.61,0,0,0,.32.16c.09.09.17.09.25.17s.33.08.49.16c.65.16,1.14.33,1.55.41.16,0,.57,0,.57.08h1.23A8,8,0,0,1,374.05,334.73Zm4.74-20.66c-.25-2.7-.58-5.39-.82-8.17a11.36,11.36,0,0,0,1.31-.9,67,67,0,0,0-.09,9.07Z" transform="translate(-54.07 -143.06)"/><path d="M444,338.81A2.77,2.77,0,0,1,442.8,340a6.48,6.48,0,0,1-1.71,2.78,3.74,3.74,0,0,1-2.45,1.8,133,133,0,0,0-17.56,4.65c-2.53.9-5.22,1.88-7.92,2.94a1.18,1.18,0,0,1-.49.16l-.33.17c-.73.32-1.46.65-2.36,1a13.74,13.74,0,0,1-3.92,1.79,12.17,12.17,0,0,1-2.45.74l-.25.08h-.24a1.87,1.87,0,0,1-.66-.08,6.21,6.21,0,0,1-1.22.08,5.14,5.14,0,0,1-4.82-2.86,5.74,5.74,0,0,1-.24-.65,7,7,0,0,1-2.13-2.53,7.31,7.31,0,0,1-.73-4.49c-.25-1.88-.41-3.76-.57-5.64-.09-.81-.17-1.71-.25-2.61L390.7,319a7.89,7.89,0,0,1-1.47-5.23,8.91,8.91,0,0,1,1.56-4.08,2.53,2.53,0,0,1-.33-1.55,2.81,2.81,0,0,1,1.47-2.29,13.53,13.53,0,0,1,1.47-.82,3.11,3.11,0,0,1-.08-.9,2.81,2.81,0,0,1,1.47-2.28c5.8-3.11,12-4.9,17.88-6.45a8.73,8.73,0,0,1,1.88-.49h.08l.82-.17a76.64,76.64,0,0,1,9.72-1.55c.81-.08,1.63-.08,2.44-.08l.17,1.31,2.69-.74,1.06-.33.58.17a11.64,11.64,0,0,1,1.87.41,8,8,0,0,1,1.56.57l.32.16.33.16c.49.41,1,.82,1.39,1.23l.49.49.24.57a12,12,0,0,1,.57,6.29l-.24,1.55-1.47.49-1,.25a8.94,8.94,0,0,1-.08,1.46,6.41,6.41,0,0,1,2.61,2.54,7.58,7.58,0,0,1,.41.81.63.63,0,0,0,.16.33,6,6,0,0,1,2,3.35,6.44,6.44,0,0,1-2.94,6.53c0,.08,0,.08-.08.16,3.1.58,7,3.27,7.68,12.91A6.37,6.37,0,0,1,444,338.81Zm-.57-4.9c-.33-4.66-1.88-11.84-8.17-10.53-.9.24-1.72.65-2.61.89l-3.19,1c-2,.66-3.92,1.39-5.88,2.13-1.22.41-2.45.89-3.67,1.39-2.37.89-4.66,1.79-6.94,2.69-1.8.74-3.6,1.47-5.39,2.29-.08.08-.17.08-.25.16v-.33c-.16-1.79-.33-3.51-.49-5.31,2.29-1.14,4.49-2.28,6.86-3.26a88.46,88.46,0,0,1,11.6-3.92c2-.49,4-.9,6-1.23s3.67-.32,5.39-1.14a3.94,3.94,0,0,0,2.12-4.08,3,3,0,0,0-1.39-2c-.08,0-.08,0-.16-.08a5.19,5.19,0,0,0-.41-1,4.42,4.42,0,0,0-.33-.65c-1.14-2-3.1-2-5.14-2-1,.08-1.88.17-2.86.33l-1.06.24c-2.61.74-5.31,1.47-7.92,2.13-4.66,1.71-9.15,3.67-13.72,5.63,0-.41-.49-3.35-.57-4.16l.16-.17c2.53-1.06,5.15-2,7.76-2.94.9-.41,9-2.86,13.15-4a1.22,1.22,0,0,0,.49-.16c1.87-.49,3.75-1.06,5.55-1.63,1.39-.41,2.78-.82,4.08-1.23a9.86,9.86,0,0,0-.49-5.06l-1.3-1.06c-.41-.17-.82-.33-1.31-.49a8.87,8.87,0,0,0-1.63-.33c-4.25,1.14-8.5,2.29-12.82,3.27a127.6,127.6,0,0,0-16.5,4.24c-1.71.57-3.51,1.23-5.23,2a4.38,4.38,0,0,1-.32.65,5.56,5.56,0,0,0-2,3.84,5.16,5.16,0,0,0,1.3,4l1,9.31q.5,4.9,1,9.8c.25,2.86.41,5.8.9,8.58a4.52,4.52,0,0,0,2.7,5.39,1.73,1.73,0,0,0,.08,1.14c.65,1.39,2.12,1.47,3.43,1.23a5.74,5.74,0,0,0,.81-.09,31.89,31.89,0,0,0,5.56-2l.08-.08c.9-.41,1.79-.73,2.69-1.14.17-.08.41-.16.57-.25h.09c2.69-1.14,5.47-2.12,8.24-3.1A123.69,123.69,0,0,1,441,338.07a.93.93,0,0,0,.81-.81A3.82,3.82,0,0,0,443.38,333.91ZM396,304.51a46.1,46.1,0,0,1,5.47-2.12,145,145,0,0,1,16.5-4.33c3.18-.73,6.45-1.55,9.63-2.37a20.31,20.31,0,0,0-2.2.08,82.88,82.88,0,0,0-10.21,1.56l-1.88.49c-5.87,1.55-11.92,3.34-17.31,6.2C395.85,304.19,395.85,304.43,396,304.51Zm12.74,42.06c1.55-.49,3-1.07,4.49-1.64v.17c-1.22.65-2.45,1.3-3.75,2-.58.32-1.23.65-1.88,1a.3.3,0,0,1-.25.08,13.5,13.5,0,0,1-3.34.08A47.08,47.08,0,0,0,408.75,346.57Zm13.39-26.38a10.06,10.06,0,0,0-1.38.57c-4.09,1.63-8.33,3.19-12.33,5.23a4,4,0,0,0,1.3-2.29c1.55-.41,3.1-.9,4.74-1.39,2.53-.81,5.06-1.55,7.59-2.36Z" transform="translate(-54.07 -143.06)"/></svg>